<svg width="138" height="107" viewBox="0 0 138 107" fill="none" xmlns="http://www.w3.org/2000/svg">
<path d="M45.1765 56.1416C45.2286 56.1845 45.2587 56.2777 45.3424 56.4249C44.306 56.2777 43.4067 55.7707 42.495 55.3384C39.5161 53.9238 36.6125 52.3024 33.9749 49.8834C30.9014 47.0655 28.4695 43.4611 26.7709 39.0013C24.6145 33.3357 23.6151 27.3272 24.1937 20.9236C24.2142 20.7074 24.2307 20.4931 24.243 20.2769C24.302 19.2015 24.5611 18.8959 25.3411 19.0711C26.6037 19.3544 27.8484 19.7271 29.048 20.3645C31.6321 21.7399 34.0832 23.4489 36.2424 25.8437C36.9525 26.6339 37.6147 27.5266 38.2987 28.738C37.1019 28.0615 36.0834 27.467 35.0552 26.9079C32.9276 25.7505 30.7163 25.0162 28.4585 24.5093C27.9499 24.3956 27.7772 24.5279 27.7964 25.2771C27.9746 32.5362 29.8102 38.9174 33.3731 44.3072C36.1478 48.5061 39.6312 51.5029 43.1297 54.4457C43.8097 55.0178 44.4965 55.5732 45.1765 56.1416Z" fill="white"/>
<path d="M33.8995 53.1429C33.9283 53.1653 33.9311 53.2454 33.9489 53.3125C33.7625 53.5548 33.5198 53.4765 33.3073 53.4803C30.4463 53.5399 27.6031 53.3535 24.816 52.377C21.1119 51.0817 18.1837 46.5791 18.4441 40.783C18.5442 38.554 18.6114 36.3269 18.8938 34.1222C18.9322 33.8259 18.8719 33.4531 19.1584 33.345C19.4668 33.2276 19.5943 33.5743 19.7437 33.8482C22.0633 38.1198 24.509 42.2497 27.0862 46.2399C28.8944 49.0391 31.0275 51.2103 33.4814 52.828C33.624 52.9212 33.7638 53.0293 33.8995 53.1429Z" fill="white"/>
<path d="M32.8069 87.3322C32.9605 87.3397 33.1127 87.3919 33.3663 87.444C32.9673 87.8969 32.567 88.0367 32.1777 88.1243C27.0876 89.291 22.0112 89.7159 16.9992 87.4795C14.5563 86.3892 12.4726 84.4342 10.4107 82.414C8.90961 80.9454 7.6813 79.1376 6.60241 77.1136C6.32138 76.5862 6.29396 76.2918 6.80393 75.9582C9.21943 74.3722 11.7199 73.144 14.3548 72.4433C14.5357 72.3948 14.7551 72.2942 14.8456 72.5737C14.9415 72.8719 14.6961 72.9893 14.5686 73.1328C13.5432 74.2715 12.5096 75.3972 11.4787 76.5266C11.247 76.78 11.0605 76.9813 11.4197 77.369C15.0443 81.2902 19.0199 84.246 23.6014 85.4853C26.6448 86.3091 29.6909 87.1496 32.8069 87.3322Z" fill="white"/>
<path d="M62.8294 76.452C62.399 76.452 62.1659 76.1781 61.9411 75.9563C59.7106 73.7478 57.2485 72.0985 54.7261 70.6467C52.2557 69.2265 49.636 68.4699 46.9751 68.0189C42.4854 67.2585 37.9683 66.9622 33.4622 66.4925C30.8658 66.2223 28.4311 65.0761 26.0293 63.7454C24.1141 62.6831 22.3279 61.3394 20.6088 59.8019C20.421 59.6342 20.1961 59.2241 19.9713 59.4683C19.7122 59.7516 19.9329 60.1728 20.0371 60.4952C21.0255 63.5628 22.5171 66.2074 23.8715 68.9712C26.845 75.0375 30.9206 79.132 35.9449 81.5306C38.137 82.578 40.4236 82.9805 42.7322 83.193C44.598 83.3663 46.4624 83.5601 48.3295 83.3738C43.6041 85.1387 38.8868 85.64 34.038 84.2329C29.1357 82.8091 25.0628 79.5178 21.6109 74.7822C17.0897 68.5798 14.8319 60.9872 14.6427 52.2577C14.618 51.1413 14.5824 50.0231 14.6824 48.9087C14.6989 48.7297 14.7496 48.5546 14.8181 48.2135C15.59 49.3075 16.3412 50.2729 17.0993 51.2271C19.6396 54.4233 22.6596 55.9925 26.0814 56.3019C30.4093 56.6914 34.7426 57.0269 39.0322 57.9568C42.3689 58.68 45.7111 59.3621 48.9615 60.6778C50.9712 61.4904 52.6794 63.0745 54.3066 64.763C57.1855 67.7505 59.6174 71.3847 61.9987 75.0729C62.2646 75.4829 62.51 75.919 62.8294 76.452Z" fill="white"/>
<path d="M64.9337 79.1301C64.5115 79.8831 64.0591 80.2092 63.6602 80.6136C63.2585 81.0199 62.8472 81.4169 62.4181 81.771C59.5681 84.1192 56.7029 86.4302 53.7267 88.484C51.9446 89.714 50.0678 90.3887 48.0951 90.6477C47.7538 90.6924 47.4124 90.7353 47.0724 90.7949C46.923 90.821 46.7201 90.7782 46.6762 91.0465C46.6406 91.2571 46.8051 91.3559 46.9093 91.4659C48.3583 93.0202 49.9581 94.1458 51.7321 94.895C55.6967 96.5649 58.9553 94.5838 61.9356 91.3112C64.0098 89.0319 65.6219 86.1544 67.1477 83.1967C67.2368 83.0252 67.3342 82.8612 67.5179 82.5332C67.9086 85.668 67.4178 88.3554 66.221 90.7931C64.6239 94.0452 62.7609 96.9451 60.2425 98.984C58.4577 100.428 56.4891 101.066 54.493 101.571C50.2131 102.65 46.3678 100.915 42.739 97.9962C41.4381 96.9507 40.4099 95.4877 39.6751 93.6911C39.0884 92.2561 38.5811 90.7595 38.0259 89.3003C37.7778 88.648 37.9135 88.3964 38.4413 88.3964C39.7423 88.3945 41.0446 88.3927 42.347 88.3461C46.1046 88.2119 49.7086 87.0005 53.2647 85.448C57.0539 83.7949 60.7361 81.784 64.3388 79.4954C64.48 79.406 64.6239 79.3202 64.9337 79.1301Z" fill="white"/>
<path d="M99.9133 88.1504C100.16 88.6107 99.7735 89.1549 99.5692 89.5481C97.7871 92.968 96.0516 96.4922 93.3948 98.7902C90.7983 101.038 87.929 102.193 84.8116 102.018C83.5107 101.945 82.2042 101.986 80.9197 101.666C77.7049 100.866 75.162 98.4882 72.9795 95.3069C71.5867 93.2774 70.5914 90.9235 70.0732 88.2249C69.699 86.2718 69.9457 84.3447 70.2322 82.3338C70.5804 82.509 70.8313 82.7737 70.9437 83.1315C71.7827 85.7816 73.3866 87.5782 74.774 89.6301C77.136 93.1264 80.0382 94.5335 83.4983 94.2745C85.6712 94.1123 87.7755 93.7787 89.7043 92.312C89.8935 92.1685 90.2225 92.1126 90.1828 91.7547C90.1457 91.4193 89.8277 91.4137 89.6097 91.3596C85.3504 90.3011 81.5777 87.7702 78.0518 84.4323C76.4725 82.9377 74.9632 81.3442 73.5621 79.5569C73.4497 79.4134 73.292 79.3072 73.3085 78.8767C74.0776 79.2532 74.8233 79.5812 75.5472 79.98C78.9757 81.8623 82.3248 84.0205 85.8179 85.6829C90.0416 87.6919 94.3571 88.8828 98.8673 88.0311C99.221 87.964 99.7214 87.7944 99.9133 88.1504Z" fill="black"/>
<path d="M104.995 87.7683C104.87 87.7161 104.748 87.6472 104.625 87.5857C104.628 87.5018 104.631 87.418 104.632 87.336C105.557 87.2446 106.483 87.1365 107.408 87.0676C111.425 86.7675 115.333 85.7071 119.135 83.9422C121.191 82.988 122.9 81.1653 124.707 79.5979C125.502 78.9084 126.171 78.0175 126.87 77.1733C127.283 76.6738 127.261 76.2843 126.836 75.8277C125.782 74.689 124.743 73.5223 123.7 72.3668C123.526 72.1749 123.319 72.0221 123.21 71.6363C123.46 71.5021 123.676 71.6214 123.904 71.7127C126.461 72.7377 128.783 74.4989 131.193 75.9861C131.56 76.2116 131.762 76.4688 131.426 77.0279C129.966 79.4563 128.52 81.8865 126.733 83.9142C123.672 87.3863 120.065 88.9704 116.193 89.2425C112.431 89.5071 108.653 89.2966 104.995 87.7683Z" fill="black"/>
<path d="M124.935 46.8493C125.251 47.0058 125.108 47.5649 125.094 47.9395C124.842 55.1296 123.573 61.8985 120.692 68.0375C118.346 73.0359 115.433 77.2758 111.733 80.403C108.268 83.3346 104.489 84.997 100.353 85.2114C97.8227 85.3437 95.3387 85.2095 92.8724 84.4435C92.7614 84.41 92.649 84.3746 92.5421 84.3242C92.5064 84.3075 92.4831 84.2422 92.4063 84.1304C93.7471 83.931 95.0439 83.7018 96.3449 83.5489C100.951 83.0103 105.072 80.718 108.813 77.123C110.353 75.6432 111.534 73.6397 112.709 71.6531C114.365 68.8538 115.614 65.7116 116.895 62.5955C117.16 61.947 117.514 61.3599 117.653 60.62C117.687 60.443 117.747 60.2436 117.599 60.1206C117.474 60.0143 117.396 60.1951 117.309 60.2771C113.696 63.5833 109.626 65.1861 105.416 66.3732C101.26 67.5455 97.0564 67.9089 92.8341 68.1325C87.2916 68.427 82.1507 70.5814 77.3773 74.3945C76.8152 74.8437 76.2449 75.2742 75.6801 75.714C75.6404 75.6507 75.6006 75.5892 75.5622 75.5277C76.674 73.5726 77.8338 71.6791 79.1375 69.9403C82.0575 66.049 85.6259 63.5479 89.2355 61.14C91.9169 59.3527 94.8246 58.7564 97.7446 58.1637C102.045 57.2915 106.395 57.3232 110.706 56.6616C113.034 56.3056 115.334 55.7353 117.462 54.4121C120.097 52.7758 122.437 50.517 124.371 47.5388C124.541 47.2779 124.655 46.7095 124.935 46.8493Z" fill="black"/>
<path d="M120.863 33.6171C120.885 35.751 121.146 37.8738 120.859 40.0207C120.66 41.5098 120.793 43.0492 120.645 44.5644C120.29 48.1893 118.663 50.3884 116.389 51.9819C113.938 53.7002 111.319 53.8269 108.657 53.7375C107.357 53.6927 106.058 53.7263 104.758 53.7151C104.543 53.7132 104.31 53.8269 104.078 53.5902C104.687 52.5223 105.642 52.2558 106.439 51.6744C109.165 49.6858 111.754 47.4736 113.901 44.378C116.254 40.9824 118.304 37.2718 120.238 33.4326C120.346 33.2202 120.386 32.8176 120.641 32.9033C120.867 32.9798 120.861 33.3562 120.863 33.6171Z" fill="black"/>
<path d="M92.5009 56.7622C93.8499 55.5862 95.3497 54.8818 96.6726 53.7226C99.6021 51.1563 102.63 48.7558 105.168 45.4608C107.673 42.2087 109.467 38.2875 110.421 33.7569C110.922 31.3788 111.183 28.9057 111.175 26.4009C111.172 25.6667 110.993 25.4952 110.464 25.4561C107.66 25.2473 105.043 26.2518 102.469 27.5881C102.269 27.6906 102.081 27.918 101.786 27.767C102.872 26.14 104.245 25.1765 105.638 24.2763C108.192 22.627 110.752 20.9925 113.411 19.6693C113.646 19.5519 113.88 19.427 114.12 19.332C115.212 18.8903 115.221 18.8922 115.398 20.4968C116.349 29.1219 114.819 36.7239 110.357 43.1256C107.62 47.0524 104.359 49.9542 100.818 52.3583C98.197 54.1382 95.4689 55.521 92.6901 56.7436C92.6325 56.7697 92.564 56.7566 92.5009 56.7622Z" fill="black"/>
<path d="M84.5703 60.7635C84.5128 60.812 84.4524 60.8623 84.388 60.8884C84.3524 60.9015 84.3058 60.866 84.1454 60.8139C85.0927 59.1198 86.0015 57.4704 86.9296 55.8397C88.9298 52.3211 90.8312 48.7111 92.1198 44.5961C93.1261 41.3812 93.7608 37.9968 93.9897 34.5285C94.2077 31.226 93.6333 28.0484 92.6106 25.0479C91.4851 21.7455 90.1444 18.6089 88.5349 15.6941C88.2758 15.2244 87.9743 14.7976 87.6836 14.3615C86.783 13.0085 86.7706 12.9824 85.5601 13.8509C83.9466 15.0064 82.3618 16.2345 80.714 17.7162C81.1541 15.7984 81.93 14.4044 82.6662 12.9992C84.0138 10.4236 85.3929 7.88152 87.0585 5.65069C87.3903 5.20713 87.6836 5.15495 88.0017 5.5016C89.6714 7.32242 91.5399 8.88232 92.6723 11.4523C94.4147 15.3978 95.9377 19.4811 96.7178 24.0154C97.199 26.8091 97.5239 29.6251 97.5732 32.4859C97.639 36.3008 96.9961 39.9518 95.8815 43.4257C93.4962 50.8599 89.6262 56.5348 84.5703 60.7635Z" fill="black"/>
<path d="M86.8803 38.2931C87.5068 43.4667 86.9146 48.5247 85.1447 53.2231C83.1199 58.5998 80.6825 63.6187 77.7365 68.1624C76.8618 69.5135 75.857 70.6728 74.8329 71.8189C75.214 70.8852 75.7775 70.1435 76.2381 69.2992C77.4719 67.0348 78.2629 64.4518 79.2211 61.9899C81.1856 56.9393 81.7929 51.4936 81.6997 45.8634C81.6558 43.2319 81.1637 40.7196 80.3727 38.3155C79.0333 34.2508 77.1374 30.6911 74.9755 27.3812C73.4744 25.0833 71.8828 22.9009 70.2336 20.7987C69.8511 20.3086 69.5769 20.2955 69.1986 20.7633C66.6885 23.8757 64.0221 26.7793 61.7724 30.2476C58.3726 35.4883 56.3067 41.562 56.3807 48.6701C56.4369 54.0245 57.4912 59.0415 59.4296 63.7659C60.869 67.2715 62.6224 70.4007 64.6198 73.3155C64.665 73.3826 64.702 73.459 64.7432 73.5316C62.074 71.0511 59.919 67.8884 58.1177 64.271C56.9798 61.9861 55.6816 59.8317 54.7727 57.3586C53.8076 54.7327 52.5464 52.254 52.1982 49.2814C51.765 45.5708 51.4469 41.8304 51.9418 38.0862C52.2626 35.6485 53.0042 33.3786 53.9515 31.2968C55.6076 27.6571 57.3966 24.1161 59.7051 21.1584C61.9781 18.2455 64.4443 15.6382 66.9133 13.0402C67.6878 12.2258 68.4898 11.4561 69.2424 10.6044C69.5536 10.2521 69.7743 10.2782 70.0883 10.5335C71.8745 11.9872 73.5717 13.6068 75.1592 15.4369C77.5623 18.2063 80.0546 20.8677 81.9478 24.3323C84.2509 28.5423 86.2442 33.0431 86.8803 38.2931Z" fill="#F17484"/>
<path d="M58.2986 17.7106C56.7975 16.9465 55.491 15.7463 54.1174 14.7175C52.157 13.2489 52.7397 13.0216 51.1412 15.2785C48.3364 19.2407 46.3116 23.8812 45.112 29.0828C43.4464 36.3008 44.4033 43.0641 47.5851 49.2441C48.7367 51.4805 49.9513 53.6517 51.037 55.9534C51.6622 57.2785 52.4573 58.4544 53.1592 59.7143C53.3127 59.992 53.5334 60.251 53.5307 60.7542C52.5683 60.1709 51.8267 59.2502 51.0603 58.4172C48.1678 55.2675 45.7002 51.6352 43.9646 47.1065C42.9159 44.3724 41.9124 41.672 41.5011 38.5894C40.9295 34.2974 41.0762 30.0985 41.9001 25.8922C43.286 18.8232 45.7289 12.5277 49.222 6.97577C49.636 6.31789 50.0788 5.68983 50.597 5.16799C50.7766 4.98722 50.8931 4.84185 51.1097 5.11954C53.9831 8.80404 56.437 12.934 58.2986 17.7106Z" fill="white"/>
</svg>
