<svg width="51" height="40" viewBox="0 0 51 40" fill="none" xmlns="http://www.w3.org/2000/svg">
<path d="M49.9348 0.849284C50.2515 1.00583 50.1075 1.56494 50.0938 1.93954C49.8416 9.12963 48.5735 15.8985 45.6919 22.0375C43.3463 27.0359 40.4332 31.2758 36.7331 34.403C33.2675 37.3346 29.4894 38.997 25.3534 39.2114C22.8227 39.3437 20.3387 39.2095 17.8724 38.4435C17.7614 38.41 17.649 38.3746 17.5421 38.3242C17.5064 38.3075 17.4831 38.2422 17.4063 38.1304C18.7471 37.931 20.0439 37.7018 21.3449 37.5489C25.9511 37.0103 30.072 34.718 33.8131 31.123C35.3526 29.6432 36.5344 27.6397 37.7092 25.6531C39.3652 22.8538 40.6141 19.7116 41.8945 16.5955C42.1605 15.947 42.5142 15.3599 42.6526 14.62C42.6869 14.443 42.7472 14.2436 42.5992 14.1206C42.4744 14.0143 42.3963 14.1951 42.3085 14.2771C38.6962 17.5833 34.6261 19.1861 30.4161 20.3732C26.2595 21.5455 22.0564 21.9089 17.8341 22.1325C12.2916 22.427 7.15072 24.5814 2.37729 28.3945C1.81522 28.8437 1.24493 29.2742 0.680127 29.714C0.640372 29.6507 0.600618 29.5892 0.562233 29.5277C1.67402 27.5726 2.83379 25.6791 4.1375 23.9403C7.0575 20.049 10.6259 17.5479 14.2355 15.14C16.9169 13.3527 19.8246 12.7564 22.7446 12.1637C27.0451 11.2915 31.3949 11.3232 35.7063 10.6616C38.0341 10.3056 40.3345 9.73533 42.4621 8.41211C45.0969 6.7758 47.437 4.51701 49.3714 1.53885C49.5413 1.27793 49.6551 0.709507 49.9348 0.849284Z" fill="black"/>
</svg>
