<svg width="16" height="21" viewBox="0 0 16 21" fill="none" xmlns="http://www.w3.org/2000/svg">
<path d="M15.8995 20.1429C15.9283 20.1653 15.9311 20.2454 15.9489 20.3125C15.7625 20.5548 15.5198 20.4765 15.3073 20.4803C12.4463 20.5399 9.60305 20.3535 6.81604 19.377C3.1119 18.0817 0.183677 13.5791 0.444146 7.78299C0.544221 5.55403 0.611394 3.32692 0.893798 1.12219C0.932182 0.825861 0.871862 0.453124 1.15838 0.345031C1.46683 0.227619 1.59432 0.574263 1.74375 0.848225C4.06329 5.11979 6.50896 9.24971 9.08623 13.2399C10.8944 16.0391 13.0275 18.2103 15.4814 19.828C15.624 19.9212 15.7638 20.0293 15.8995 20.1429Z" fill="black"/>
</svg>
