<svg width="22" height="38" viewBox="0 0 22 38" fill="none" xmlns="http://www.w3.org/2000/svg">
<path d="M21.1765 37.1416C21.2286 37.1845 21.2587 37.2777 21.3424 37.4249C20.306 37.2777 19.4067 36.7707 18.495 36.3384C15.5161 34.9238 12.6125 33.3024 9.97495 30.8834C6.90141 28.0655 4.46946 24.4611 2.77093 20.0013C0.614517 14.3357 -0.38486 8.32719 0.193655 1.92358C0.214219 1.70739 0.230669 1.49307 0.243007 1.27688C0.301956 0.201534 0.561053 -0.10411 1.34109 0.0710759C2.60368 0.354356 3.84844 0.727092 5.04797 1.36447C7.6321 2.73987 10.0832 4.44887 12.2424 6.8437C12.9525 7.6339 13.6147 8.52661 14.2987 9.738C13.1019 9.06149 12.0834 8.46697 11.0552 7.90787C8.92759 6.75052 6.71635 6.01623 4.45849 5.5093C3.94989 5.39562 3.77716 5.52794 3.79635 6.27714C3.97457 13.5362 5.81019 19.9174 9.37313 25.3072C12.1478 29.5061 15.6312 32.5029 19.1297 35.4457C19.8097 36.0178 20.4965 36.5732 21.1765 37.1416Z" fill="black"/>
</svg>
